<svg width="139" height="139" viewBox="0 0 139 139" fill="none" xmlns="http://www.w3.org/2000/svg">
<circle cx="69" cy="70" r="60" fill="#FFCC00"/>
<circle cx="69.5" cy="69.5" r="68.5" stroke="#FFCC00" stroke-width="2"/>
<path d="M84.8029 75.6868C83.2827 74.1664 80.8544 74.2197 79.4034 75.6707C77.7289 77.345 73.9375 81.1351 73.9364 81.1363L57.8802 65.0789C58.6927 64.2672 59.7208 63.2404 63.3285 59.6305C64.8231 58.138 64.829 55.713 63.3293 54.2131C53.8117 44.6957 54.4003 45.2807 54.2937 45.1836C52.7847 43.8095 50.4908 43.8328 48.8876 45.4362C48.8654 45.4584 46.0414 48.2708 46.0273 48.2989C34.1869 59.9771 41.4979 73.9839 53.265 85.7509C64.4223 96.9106 77.8797 104.459 89.6349 94.0226C90.3585 93.3798 93.778 89.9441 93.9632 89.7194C93.9661 89.7159 93.9689 89.7125 93.9717 89.709C95.2113 88.1809 95.0963 85.9791 93.7045 84.5871L84.8029 75.6868ZM51.2969 47.8457C51.5253 47.6173 51.7891 47.4915 52.0193 47.7222L60.9197 56.6225C61.0881 56.7909 61.0804 57.0598 60.9194 57.2207C60.1163 58.0244 59.5751 58.5658 59.1492 58.9919L49.6472 49.4898C50.3325 48.8048 50.9794 48.1631 51.2969 47.8457ZM55.6744 83.3416C46.229 73.8961 38.5391 62.0273 47.2809 51.9424L56.7399 61.4014C56.1024 62.0384 56.8969 61.2446 55.2039 62.9362C54.0144 64.1256 54.0244 66.0446 55.2039 67.2216L71.7933 83.8121C72.975 84.994 74.898 84.994 76.0803 83.8117C76.8906 83.0008 77.3471 82.544 77.6148 82.2763L87.0737 91.7352C77.022 100.45 65.1791 92.8483 55.6744 83.3416ZM91.3075 87.5736C90.8309 88.0628 90.0039 88.8916 89.5265 89.369L80.0254 79.8678L81.8131 78.0803C81.9489 77.9444 82.2236 77.9264 82.3937 78.0964L91.2951 86.9967C91.4476 87.1492 91.4706 87.4056 91.3075 87.5736Z" fill="black"/>
<path d="M95.397 41.0034H74.1775C72.7424 41.0034 71.5748 42.1709 71.5748 43.6062V59.6358L67.888 63.3223C66.9478 64.2624 67.4021 65.8716 68.6927 66.1832L70.9354 66.7248L68.7139 68.9459C68.0486 69.6112 68.0485 70.69 68.7138 71.3553C69.3794 72.0211 70.4583 72.0206 71.1233 71.3556L75.493 66.9865C76.4331 66.0463 75.9789 64.4371 74.6882 64.1255L72.4455 63.584L73.9837 62.046H95.397C96.8321 62.046 97.9998 60.8785 97.9998 59.4433V43.6062C97.9998 42.1709 96.8321 41.0034 95.397 41.0034ZM94.5923 58.6385H74.9824V44.4109H94.5923V58.6385Z" fill="black"/>
<path d="M79.6476 50.3567H89.9276C90.8685 50.3567 91.6314 49.5939 91.6314 48.653C91.6314 47.712 90.8685 46.9492 89.9276 46.9492H79.6476C78.7067 46.9492 77.9438 47.712 77.9438 48.653C77.9438 49.5939 78.7066 50.3567 79.6476 50.3567Z" fill="black"/>
<path d="M79.6476 55.8904H89.9276C90.8685 55.8904 91.6314 55.1276 91.6314 54.1867C91.6314 53.2457 90.8685 52.4829 89.9276 52.4829H79.6476C78.7067 52.4829 77.9438 53.2457 77.9438 54.1867C77.9438 55.1276 78.7066 55.8904 79.6476 55.8904Z" fill="black"/>
</svg>
