<svg width="17" height="17" viewBox="0 0 17 17" fill="none" xmlns="http://www.w3.org/2000/svg">
<path d="M8.35572 0.521484C5.30109 0.521484 2.81592 3.00666 2.81592 6.06128C2.81592 9.90062 8.36116 16.459 8.36116 16.459C8.36116 16.459 13.8955 9.71181 13.8955 6.06128C13.8955 3.00666 11.4104 0.521484 8.35572 0.521484ZM10.0272 7.68334C9.5663 8.14413 8.96106 8.37457 8.35572 8.37457C7.75047 8.37457 7.14503 8.14413 6.68434 7.68334C5.76266 6.76176 5.76266 5.26217 6.68434 4.34049C7.13064 3.894 7.72431 3.64809 8.35572 3.64809C8.98713 3.64809 9.5807 3.8941 10.0272 4.34049C10.9489 5.26217 10.9489 6.76176 10.0272 7.68334Z" fill="#828282"/>
</svg>
