<svg width="75" height="75" viewBox="0 0 75 75" fill="none" xmlns="http://www.w3.org/2000/svg">
<path d="M35.0861 9.09952C35.2064 9.06913 35.262 8.93014 35.1958 8.82515L31.201 2.48546C31.1589 2.41871 31.0788 2.38653 31.0022 2.40566L26.8787 3.43655C26.8012 3.45592 26.7453 3.52338 26.7407 3.60309L26.3064 11.0717C26.2993 11.1948 26.4138 11.2895 26.5334 11.2593L35.0861 9.09952Z" fill="#32B824"/>
<path d="M24.2134 12.6035C24.3128 12.5292 24.3108 12.3795 24.2094 12.308L18.0871 7.98738C18.0226 7.94189 17.9363 7.94295 17.8729 7.98999L14.461 10.5248C14.3969 10.5724 14.3712 10.6561 14.3975 10.7315L16.8634 17.7946C16.904 17.9111 17.0461 17.9545 17.145 17.8807L24.2134 12.6035Z" fill="#32B824"/>
<path d="M15.4098 19.4992C15.4718 19.3966 15.4199 19.2631 15.3048 19.2295L7.64631 16.9911C7.56699 16.9679 7.482 17.0009 7.43907 17.0715L5.22197 20.7184C5.18102 20.7858 5.18792 20.8718 5.23908 20.9318L10.521 27.1229C10.6019 27.2176 10.7518 27.2054 10.8162 27.0988L15.4098 19.4992Z" fill="#32B824"/>
<path d="M10.096 29.2414C10.1108 29.1224 10.0089 29.0217 9.89017 29.0379L1.98413 30.1137C1.90225 30.1249 1.83806 30.1896 1.82762 30.2716L1.28859 34.5053C1.27864 34.5835 1.31999 34.6593 1.39114 34.6932L8.73713 38.1954C8.84956 38.249 8.98147 38.1768 8.99688 38.0532L10.096 29.2414Z" fill="#32B824"/>
<path d="M9.01839 40.2984C8.98807 40.1824 8.85612 40.1267 8.7518 40.1857L1.80818 44.1162C1.73626 44.1569 1.70066 44.2409 1.72136 44.3209L2.7905 48.4527C2.81025 48.529 2.87674 48.584 2.9554 48.5892L11.0763 49.118C11.2006 49.1261 11.2963 49.0101 11.2648 48.8896L9.01839 40.2984Z" fill="#32B824"/>
<path d="M12.3489 50.9245C12.2778 50.828 12.1346 50.8249 12.0595 50.9183L7.0593 57.1361C7.00752 57.2005 7.00543 57.2916 7.05423 57.3583L9.57427 60.8028C9.62081 60.8664 9.70292 60.893 9.77791 60.8687L17.5196 58.3598C17.6381 58.3214 17.6842 58.1783 17.6104 58.0779L12.3489 50.9245Z" fill="#32B824"/>
<path d="M19.6583 59.1523C19.5565 59.1006 19.4328 59.1539 19.4005 59.2634L16.9311 67.6321C16.9062 67.7163 16.9448 67.8063 17.023 67.8463L20.8495 69.8039C20.9182 69.8391 21.0017 69.8272 21.0579 69.7742L27.6996 63.5118C27.7915 63.4251 27.7697 63.2734 27.657 63.2162L19.6583 59.1523Z" fill="#32B824"/>
<path d="M29.3016 63.7554C29.1904 63.7474 29.0981 63.8401 29.1065 63.9513L29.798 73.0353C29.8049 73.1253 29.8765 73.1968 29.9665 73.2035L34.2697 73.5243C34.3459 73.5299 34.4176 73.4876 34.4493 73.4181L38.4519 64.6576C38.5048 64.5418 38.4259 64.4087 38.2988 64.3996L29.3016 63.7554Z" fill="#32B824"/>
<path d="M39.9576 65.1611C39.8475 65.1925 39.7932 65.3164 39.8446 65.4187L43.7396 73.1738C43.7789 73.252 43.8681 73.2914 43.9523 73.2676L48.087 72.101C48.1614 72.08 48.2146 72.0144 48.2196 71.9372L48.8122 62.89C48.8205 62.764 48.7014 62.6678 48.58 62.7025L39.9576 65.1611Z" fill="#32B824"/>
<path d="M50.3075 61.8414C50.2217 61.9136 50.2207 62.0453 50.3053 62.1188L57.1177 68.0407C57.1854 68.0996 57.2859 68.1005 57.3547 68.0429L60.6598 65.2744C60.7185 65.2252 60.7403 65.1446 60.7143 65.0725L57.4868 56.1138C57.4437 55.9942 57.2946 55.9541 57.1974 56.036L50.3075 61.8414Z" fill="#32B824"/>
<path d="M58.7194 55.103C58.6604 55.2009 58.7049 55.3283 58.812 55.3683L66.9678 58.4137C67.05 58.4444 67.1423 58.4123 67.1878 58.3373L69.4162 54.663C69.4563 54.5969 69.4504 54.5128 69.4016 54.4529L63.6472 47.3996C63.5673 47.3017 63.4145 47.3126 63.3493 47.4208L58.7194 55.103Z" fill="#32B824"/>
<path d="M64.543 46.0901C64.5247 46.2086 64.6235 46.3123 64.7427 46.2996L72.6771 45.4585C72.7593 45.4497 72.8254 45.3869 72.8382 45.3053L73.5025 41.0894C73.5147 41.0115 73.4756 40.9346 73.4055 40.8985L66.1665 37.1803C66.0557 37.1234 65.9217 37.1917 65.9027 37.3148L64.543 46.0901Z" fill="#32B824"/>
<path d="M65.7616 34.9844C65.7899 35.1009 65.9209 35.1589 66.0262 35.1017L73.0369 31.2922C73.1095 31.2527 73.1466 31.1694 73.1273 31.0891L72.1299 26.9393C72.1115 26.8627 72.046 26.8065 71.9674 26.8L63.8569 26.1304C63.7328 26.1202 63.6351 26.2345 63.6645 26.3555L65.7616 34.9844Z" fill="#32B824"/>
<path d="M61.5554 24.5663C61.6235 24.6578 61.7579 24.6651 61.8355 24.5817L67.7934 18.1797C67.8534 18.1153 67.8589 18.0173 67.8065 17.9466L65.2486 14.4915C65.2027 14.4294 65.1227 14.403 65.0488 14.4254L56.2888 17.0846C56.1678 17.1214 56.1199 17.267 56.1954 17.3684L61.5554 24.5663Z" fill="#32B824"/>
<path d="M55.5213 15.5933C55.6247 15.654 55.7575 15.6002 55.7895 15.4847L57.9252 7.79693C57.9473 7.71731 57.9132 7.63276 57.842 7.59079L54.1658 5.42272C54.0979 5.38268 54.0119 5.39073 53.9527 5.44269L47.8328 10.8071C47.7392 10.8892 47.7534 11.0389 47.8608 11.1019L55.5213 15.5933Z" fill="#32B824"/>
<path d="M45.675 10.7618C45.7894 10.7729 45.8854 10.6768 45.8743 10.5624L45.0398 1.98441C45.0313 1.89771 44.9628 1.82904 44.8761 1.82041L40.6037 1.39499C40.5266 1.38732 40.4531 1.42912 40.4203 1.49928L36.6103 9.63965C36.5568 9.75388 36.6325 9.88663 36.7581 9.89878L45.675 10.7618Z" fill="#32B824"/>
<path fill-rule="evenodd" clip-rule="evenodd" d="M65.9127 37.5212C65.9127 53.252 53.1603 66.0044 37.4295 66.0044C21.6987 66.0044 8.94629 53.252 8.94629 37.5212C8.94629 21.7903 21.6987 9.03795 37.4295 9.03795C53.1603 9.03795 65.9127 21.7903 65.9127 37.5212ZM51.4886 37.5212C51.4886 45.2353 45.235 51.4889 37.5208 51.4889C29.8067 51.4889 23.5531 45.2353 23.5531 37.5212C23.5531 29.807 29.8067 23.5534 37.5208 23.5534C45.235 23.5534 51.4886 29.807 51.4886 37.5212ZM56.2357 37.4299C56.2357 47.8163 47.8159 56.2361 37.4295 56.2361C27.0431 56.2361 18.6233 47.8163 18.6233 37.4299C18.6233 27.0435 27.0431 18.6236 37.4295 18.6236C47.8159 18.6236 56.2357 27.0435 56.2357 37.4299ZM57.1486 37.4299C57.1486 48.3204 48.3201 57.149 37.4295 57.149C26.5389 57.149 17.7103 48.3204 17.7103 37.4299C17.7103 26.5393 26.5389 17.7107 37.4295 17.7107C48.3201 17.7107 57.1486 26.5393 57.1486 37.4299Z" fill="#32B824"/>
</svg>
