<svg width="17" height="16" viewBox="0 0 17 16" fill="none" xmlns="http://www.w3.org/2000/svg">
<path d="M16.5375 11.7424L14.1651 9.50954C13.3178 8.71209 11.8774 9.0311 11.5385 10.0678C11.2843 10.7855 10.4371 11.1842 9.67451 11.0247C7.97993 10.626 5.69226 8.5526 5.26862 6.87797C5.01443 6.16024 5.5228 5.36279 6.28536 5.12359C7.38683 4.80461 7.72575 3.44895 6.87846 2.65151L4.50606 0.418659C3.82823 -0.139553 2.81149 -0.139553 2.21839 0.418659L0.608546 1.93381C-1.0013 3.5287 0.778003 7.75516 4.76025 11.5032C8.74249 15.2511 13.2331 17.0056 14.9277 15.4106L16.5375 13.8955C17.1307 13.2575 17.1307 12.3006 16.5375 11.7424Z" fill="#828282"/>
</svg>
