<svg width="13" height="13" viewBox="0 0 13 13" fill="none" xmlns="http://www.w3.org/2000/svg">
<path d="M12.6591 9.54068L10.8411 7.72649C10.1918 7.07857 9.08802 7.33776 8.82831 8.18004C8.63352 8.7632 7.98423 9.08716 7.39987 8.95755C6.1013 8.63359 4.34822 6.94898 4.02358 5.58834C3.82879 5.00519 4.21836 4.35726 4.80272 4.16291C5.6468 3.90374 5.90651 2.80227 5.25722 2.15435L3.43922 0.34016C2.91979 -0.113387 2.14064 -0.113387 1.68614 0.34016L0.452493 1.57122C-0.781154 2.86706 0.582351 6.30106 3.634 9.3463C6.68566 12.3915 10.1269 13.817 11.4255 12.5211L12.6591 11.2901C13.1136 10.7717 13.1136 9.99423 12.6591 9.54068Z" fill="#BDBDBD"/>
</svg>
