<svg width="139" height="139" viewBox="0 0 139 139" fill="none" xmlns="http://www.w3.org/2000/svg">
<circle cx="69" cy="70" r="60" fill="#FFCC00"/>
<circle cx="69.5" cy="69.5" r="68.5" stroke="#FFCC00" stroke-width="2"/>
<g clip-path="url(#clip0)">
<path d="M93.6372 56.7369L93.6354 56.6917C93.6102 56.1346 93.5934 55.5452 93.5832 54.8894C93.5359 51.6914 90.9937 49.0462 87.7953 48.8674C81.1267 48.4952 75.968 46.3208 71.5602 42.0245L71.5226 41.9887C70.0849 40.6704 67.9162 40.6704 66.4781 41.9887L66.4405 42.0245C62.0327 46.3208 56.874 48.4952 50.2055 48.8678C47.0075 49.0462 44.4649 51.6914 44.4175 54.8899C44.4078 55.5412 44.3905 56.1306 44.3653 56.6917L44.3626 56.7966C44.233 63.5966 44.0719 72.0594 46.903 79.7409C48.4598 83.965 50.8174 87.6369 53.9101 90.6552C57.4324 94.0926 62.046 96.8215 67.6224 98.7659C67.8038 98.8291 67.9923 98.8805 68.1844 98.919C68.4552 98.973 68.7278 98.9999 69.0004 98.9999C69.2729 98.9999 69.546 98.973 69.8163 98.919C70.0084 98.8805 70.1982 98.8287 70.3805 98.765C75.9503 96.8171 80.559 94.0868 84.0782 90.6499C87.1696 87.6307 89.5272 83.9579 91.0853 79.7329C93.927 72.0285 93.7664 63.5497 93.6372 56.7369ZM87.8922 78.5554C84.9062 86.6514 78.8107 92.2115 69.2575 95.5524C69.2234 95.5639 69.1871 95.5741 69.1495 95.5816C69.0508 95.6011 68.9504 95.6011 68.8503 95.5812C68.8132 95.5736 68.7769 95.5639 68.7433 95.5524C59.1799 92.2177 53.0804 86.6607 50.0966 78.5642C47.4872 71.4837 47.6349 63.7151 47.7655 56.8617L47.7664 56.8236C47.7929 56.2346 47.8106 55.6178 47.8204 54.9399C47.8416 53.5199 48.9726 52.345 50.3953 52.2658C54.169 52.0552 57.4842 51.3259 60.5304 50.0365C63.5726 48.7488 66.2745 46.9336 68.7897 44.4875C68.9176 44.3795 69.0835 44.3791 69.211 44.4875C71.7266 46.9336 74.4285 48.7488 77.4703 50.0365C80.5165 51.3259 83.8318 52.0552 87.6059 52.2658C89.0285 52.345 90.1596 53.5199 90.1804 54.9403C90.1905 55.6218 90.2082 56.2386 90.2348 56.8236C90.3649 63.6851 90.5091 71.4598 87.8922 78.5554Z" fill="black"/>
<path d="M68.9993 55.5464C61.0289 55.5464 54.5449 62.0309 54.5449 70.0008C54.5449 77.9712 61.0289 84.4557 68.9993 84.4557C76.9693 84.4557 83.4538 77.9712 83.4538 70.0008C83.4538 62.0309 76.9693 55.5464 68.9993 55.5464ZM68.9993 81.0519C62.9056 81.0519 57.9482 76.0945 57.9482 70.0008C57.9482 63.9071 62.9056 58.9497 68.9993 58.9497C75.0926 58.9497 80.05 63.9071 80.05 70.0008C80.05 76.0945 75.0926 81.0519 68.9993 81.0519Z" fill="black"/>
<path d="M73.1537 65.5135L66.4401 72.2271L64.6178 70.4049C63.9532 69.7403 62.8757 69.7403 62.211 70.4049C61.5468 71.0696 61.5468 72.1471 62.211 72.8113L65.2369 75.8371C65.5692 76.1694 66.0046 76.3354 66.4401 76.3354C66.8755 76.3354 67.3109 76.1694 67.6432 75.8371L75.5605 67.9198C76.2247 67.2552 76.2247 66.1777 75.5605 65.5135C74.8959 64.8484 73.8184 64.8484 73.1537 65.5135Z" fill="black"/>
</g>
<defs>
<clipPath id="clip0">
<rect width="58" height="58" fill="white" transform="translate(40 41)"/>
</clipPath>
</defs>
</svg>
