<svg width="139" height="139" viewBox="0 0 139 139" fill="none" xmlns="http://www.w3.org/2000/svg">
<circle cx="69" cy="70" r="60" fill="#FFCC00"/>
<circle cx="69.5" cy="69.5" r="68.5" stroke="#FFCC00" stroke-width="2"/>
<path d="M86.9198 41H76.4227C73.9746 41 71.9829 42.9917 71.9829 45.4398V55.937C71.9829 58.3852 73.9746 60.3769 76.4227 60.3769H86.9198C89.3681 60.3769 91.3598 58.3852 91.3598 55.937V45.4398C91.3599 42.9917 89.3682 41 86.9198 41ZM87.9615 55.937C87.9615 56.5113 87.4942 56.9784 86.9199 56.9784H76.4229C75.8486 56.9784 75.3815 56.5113 75.3815 55.937V45.4398C75.3815 44.8656 75.8486 44.3984 76.4229 44.3984H86.9199C87.4942 44.3984 87.9615 44.8656 87.9615 45.4398V55.937Z" fill="black"/>
<path d="M78.7885 64.619C77.9732 64.619 77.2045 64.8213 76.5297 65.1785C75.6602 63.8759 74.1772 63.0164 72.4971 63.0164C71.6295 63.0164 70.8143 63.2457 70.109 63.6468C69.2262 62.448 67.8051 61.6688 66.2056 61.6688C65.7021 61.6688 65.216 61.7461 64.7591 61.8893V60.3768H65.1627C67.6108 60.3768 69.6025 58.385 69.6025 55.9369V45.4398C69.6025 42.9917 67.6108 41 65.1627 41H54.6656C52.2175 41 50.2258 42.9917 50.2258 45.4398V55.937C50.2258 58.3852 52.2175 60.3769 54.6656 60.3769H55.0692V70.9032C54.8065 70.6397 54.5114 70.4049 54.1874 70.2037C53.1437 69.5553 51.9197 69.3296 50.7194 69.5607C49.4289 69.6125 48.2708 70.1757 47.5185 71.124C46.7282 72.1199 46.4537 73.4556 46.7651 74.7884L48.9981 84.345C50.2719 92.3184 56.4917 98.2841 56.7565 98.5348C57.0721 98.8335 57.4902 98.9999 57.9247 98.9999H77.0366C77.6087 98.9999 78.1422 98.712 78.4565 98.2341C81.8414 93.0852 83.6312 87.1068 83.632 80.9453L83.6338 69.4641C83.6338 69.464 83.6338 69.464 83.6338 69.4638C83.6335 66.7924 81.46 64.619 78.7885 64.619ZM58.6386 95.6016C57.2691 94.1449 53.2334 89.441 52.3455 83.7564C52.3389 83.7146 52.3309 83.6732 52.3212 83.632L50.0742 74.0151C49.9992 73.6939 50.0369 73.4172 50.1806 73.2361C50.3242 73.055 50.5699 72.9604 50.8983 72.9291C51.0636 72.9134 51.1321 72.8938 51.2849 72.8845C51.6704 72.8611 52.0657 72.8866 52.394 73.0905C52.7223 73.2944 52.9513 73.6139 53.0392 73.9901L54.9773 82.2854C55.1392 82.978 55.7153 83.4966 56.421 83.5848L56.5572 83.6018C57.041 83.6623 57.5272 83.5122 57.8926 83.1897C58.2581 82.8672 58.4673 82.4032 58.4673 81.9157V54.91C58.4673 54.1124 59.1163 53.4634 59.9139 53.4634C60.7115 53.4634 61.3605 54.1124 61.3605 54.91V66.5139V70.8442C61.3605 71.7826 62.1213 72.5434 63.0597 72.5434C63.9982 72.5434 64.759 71.7826 64.759 70.8442V66.5139C64.759 65.7163 65.4078 65.0674 66.2054 65.0674C67.0031 65.0674 67.652 65.7163 67.652 66.5139V67.8615V71.0377C67.652 71.9761 68.4128 72.7369 69.3513 72.7369C70.2897 72.7369 71.0505 71.9761 71.0505 71.0377V67.8615C71.0505 67.0639 71.6995 66.4149 72.4971 66.4149C73.2947 66.4149 73.9436 67.0639 73.9436 67.8615V69.464V72.2243C73.9436 73.1627 74.7044 73.9235 75.6428 73.9235C76.5812 73.9235 77.342 73.1627 77.342 72.2243V69.464C77.342 68.6663 77.991 68.0174 78.7886 68.0174C79.5862 68.0174 80.2352 68.6663 80.2352 69.4636L80.2334 80.945C80.2327 86.1384 78.8072 91.1863 76.1027 95.6016H58.6386ZM53.6242 55.937V45.4398C53.6242 44.8656 54.0914 44.3984 54.6656 44.3984H65.1627C65.7369 44.3984 66.2041 44.8656 66.2041 45.4398V55.937C66.2041 56.5113 65.7369 56.9784 65.1627 56.9784H64.7591V54.9099C64.7591 52.2384 62.5855 50.0649 59.914 50.0649C57.2425 50.0649 55.069 52.2384 55.069 54.9099V56.9784H54.6654C54.0914 56.9784 53.6242 56.5113 53.6242 55.937Z" fill="black"/>
</svg>
