<svg width="139" height="139" viewBox="0 0 139 139" fill="none" xmlns="http://www.w3.org/2000/svg">
<circle cx="69" cy="70" r="60" fill="#FFCC00"/>
<circle cx="69.5" cy="69.5" r="68.5" stroke="#FFCC00" stroke-width="2"/>
<g clip-path="url(#clip0)">
<path d="M89.3906 81.9512V70.0566C89.3906 69.1182 88.6298 68.3574 87.6914 68.3574H74.0977C73.1592 68.3574 72.3984 69.1182 72.3984 70.0566V81.9512H65.0352V70.0566C65.0352 69.1182 64.2744 68.3574 63.3359 68.3574H49.7422C48.8038 68.3574 48.043 69.1182 48.043 70.0566V81.9721C43.6215 82.2648 40.1133 85.9531 40.1133 90.4473C40.1133 95.132 43.9246 98.9434 48.6094 98.9434H89.3906C94.0754 98.9434 97.8867 95.132 97.8867 90.4473C97.8867 85.7625 94.0754 81.9512 89.3906 81.9512ZM70.6992 87.0488C70.6992 87.9858 69.9369 88.748 69 88.748C68.0631 88.748 67.3008 87.9858 67.3008 87.0488C67.3008 86.1119 68.0631 85.3496 69 85.3496C69.9369 85.3496 70.6992 86.1119 70.6992 87.0488ZM64.1946 85.3496C63.02 88.6616 65.4924 92.1465 69 92.1465C72.5153 92.1465 74.9779 88.6555 73.8054 85.3496H82.5984C80.3266 88.369 80.3244 92.5226 82.5984 95.5449H55.4016C57.6733 92.5255 57.6756 88.372 55.4016 85.3496H64.1946ZM75.7969 71.7559H79.1953V73.4551C79.1953 74.3935 79.9561 75.1543 80.8945 75.1543C81.833 75.1543 82.5938 74.3935 82.5938 73.4551V71.7559H85.9922V81.9512H75.7969V71.7559ZM51.4414 71.7559H54.8398V73.4551C54.8398 74.3935 55.6006 75.1543 56.5391 75.1543C57.4775 75.1543 58.2383 74.3935 58.2383 73.4551V71.7559H61.6367V81.9512H51.4414V71.7559ZM43.5117 90.4473C43.5117 87.6364 45.7985 85.3496 48.6094 85.3496C51.4202 85.3496 53.707 87.6364 53.707 90.4473C53.707 93.2581 51.4202 95.5449 48.6094 95.5449C45.7985 95.5449 43.5117 93.2581 43.5117 90.4473ZM89.3906 95.5449C86.5798 95.5449 84.293 93.2581 84.293 90.4473C84.293 87.6364 86.5798 85.3496 89.3906 85.3496C92.2015 85.3496 94.4883 87.6364 94.4883 90.4473C94.4883 93.2581 92.2015 95.5449 89.3906 95.5449Z" fill="black"/>
<path d="M41.6992 44.4551H51.4414V49.5527C51.4414 50.4912 52.2022 51.252 53.1406 51.252H54.8398V53.3567C52.7046 54.108 51.2761 56.214 51.461 58.5651L44.1947 62.2674C43.5838 62.5787 43.2199 63.2265 43.2718 63.91L43.577 67.9311C43.6447 68.8232 44.3894 69.5019 45.2695 69.5018C46.2595 69.5018 47.0405 68.6616 46.9657 67.6739L46.7461 64.7815L52.846 61.6735C52.8755 61.7045 52.9041 61.7361 52.9346 61.7666C54.935 63.7669 58.2358 63.7717 60.2321 61.6734L66.332 64.7814L66.1125 67.6738C66.0414 68.6095 66.7425 69.4257 67.6781 69.4967C68.6138 69.5676 69.4301 68.8667 69.5012 67.9309L69.8063 63.9098C69.8582 63.2262 69.4942 62.5784 68.8834 62.2672L61.6172 58.5649C61.8019 56.2165 60.3761 54.1087 58.2384 53.3566V51.252H59.5978C60.5362 51.252 61.297 50.4912 61.297 49.5527V44.4551H96.3009C97.2393 44.4551 98.0001 43.6943 98.0001 42.7559C98.0001 41.8174 97.2393 41.0566 96.3009 41.0566H41.6992C40.7608 41.0566 40 41.8174 40 42.7559C40 43.6943 40.7608 44.4551 41.6992 44.4551ZM55.3376 59.3636C54.6735 58.6994 54.6734 57.6247 55.3376 56.9605C56.0002 56.298 57.0781 56.2981 57.7406 56.9605C58.4047 57.6247 58.4048 58.6994 57.7406 59.3636C57.0782 60.0262 56 60.0262 55.3376 59.3636ZM57.8984 47.8535H54.8398V44.4551H57.8984V47.8535Z" fill="black"/>
<path d="M48.6094 92.1465C49.5478 92.1465 50.3086 91.3857 50.3086 90.4473C50.3086 89.5088 49.5478 88.748 48.6094 88.748C47.6709 88.748 46.9102 89.5088 46.9102 90.4473C46.9102 91.3857 47.6709 92.1465 48.6094 92.1465Z" fill="black"/>
<path d="M89.3906 92.1465C90.3291 92.1465 91.0898 91.3857 91.0898 90.4473C91.0898 89.5088 90.3291 88.748 89.3906 88.748C88.4522 88.748 87.6914 89.5088 87.6914 90.4473C87.6914 91.3857 88.4522 92.1465 89.3906 92.1465Z" fill="black"/>
</g>
<defs>
<clipPath id="clip0">
<rect width="58" height="58" fill="white" transform="translate(40 41)"/>
</clipPath>
</defs>
</svg>
