<svg width="17" height="17" viewBox="0 0 17 17" fill="none" xmlns="http://www.w3.org/2000/svg">
<path d="M8.5 0C3.825 0 0 3.825 0 8.5C0 13.175 3.825 17 8.5 17C13.175 17 17 13.175 17 8.5C17 3.825 13.175 0 8.5 0ZM12.75 9.35H9.945C9.69 9.86 9.095 10.2 8.5 10.2C7.565 10.2 6.8 9.435 6.8 8.5C6.8 7.905 7.14 7.31 7.65 7.055V2.55C7.65 2.04 7.99 1.7 8.5 1.7C9.01 1.7 9.35 2.04 9.35 2.55V7.055C9.605 7.225 9.775 7.395 9.945 7.65H12.75C13.26 7.65 13.6 7.99 13.6 8.5C13.6 9.01 13.26 9.35 12.75 9.35Z" fill="#828282"/>
</svg>
